<?xml version="1.0" encoding="utf-8"?>
<!-- Generator: Adobe Illustrator 25.4.1, SVG Export Plug-In . SVG Version: 6.00 Build 0)  -->
<svg version="1.1" baseProfile="tiny" id="レイヤー_1"
	 xmlns="http://www.w3.org/2000/svg" xmlns:xlink="http://www.w3.org/1999/xlink" x="0px" y="0px" viewBox="0 0 86 31"
	 overflow="visible" xml:space="preserve">
<g>
	<g>
		<path fill="#CDDB1E" d="M16.7,0C8.2,0,1.2,5,0.1,13.2L21.9,0.6C20.4,0.3,18.8,0,16.7,0z"/>
		<path fill="#F8B310" d="M21.9,0.6L0.1,13.2C0.1,13.9,0,14.6,0,15.3c0,1,0.1,2,0.3,2.9l27-15.6C25.7,2,24.1,1.2,21.9,0.6z"/>
		<path fill="#F08208" d="M30.9,3.3c-1.4,0-2.5-0.3-3.7-0.7l-27,15.6c0.3,1.5,0.7,2.9,1.4,4.2L38.4,1.1C35.6,2,33.7,3.3,30.9,3.3z"
			/>
		<path fill="#EA5527" d="M45.2,0c-2.9,0-5,0.5-6.8,1.1L1.6,22.3c0.7,1.3,1.6,2.5,2.6,3.6L48.6,0.3C47.5,0.1,46.4,0,45.2,0z"/>
		<path fill="#E61258" d="M48.6,0.3L4.2,25.9c1.1,1.1,2.4,2,3.8,2.7L54,2.1C52.4,1.2,50.5,0.6,48.6,0.3z"/>
		<path fill="#BB0383" d="M54,2.1l-46,26.5c1.7,0.9,3.6,1.5,5.7,1.8L57.8,4.9C56.7,3.8,55.5,2.8,54,2.1z"/>
		<path fill="#86328E" d="M57.8,4.9L13.8,30.4c0.9,0.1,1.9,0.2,2.9,0.2c3.5,0,5.8-0.7,7.8-1.4L60.3,8.4C59.7,7.1,58.8,6,57.8,4.9z"
			/>
		<path fill="#4D4B9D" d="M60.3,8.4L24.5,29.1c2.3-0.9,4.1-1.9,6.5-1.9c1.5,0,2.7,0.4,4,0.9l26.7-15.4C61.4,11.2,61,9.7,60.3,8.4z"
			/>
		<path fill="#007CC4" d="M61.7,12.7L34.9,28.2c1.5,0.6,3.1,1.4,5.3,1.9l21.5-12.4c0.1-0.8,0.2-1.5,0.2-2.4
			C61.9,14.4,61.8,13.6,61.7,12.7z"/>
		<path fill="#00B2DE" d="M45.2,30.6c8.4,0,15.3-4.9,16.5-12.9L40.2,30C41.6,30.4,43.2,30.6,45.2,30.6z"/>
	</g>
	<g>
		<path fill="#C26C0C" d="M30.9,3.3c-4.4,0-8.2,3.2-9.7,7.7l12.5-7.2C32.9,3.5,31.9,3.3,30.9,3.3z"/>
		<path fill="#BB4623" d="M33.8,3.8L21.2,11c-0.4,1.3-0.7,2.8-0.7,4.3c0,0.4,0,0.8,0,1.1l17.3-10C36.7,5.2,35.3,4.3,33.8,3.8z"/>
		<path fill="#B5114B" d="M37.9,6.4l-17.3,10c0.1,1.5,0.5,3,1.1,4.3L40.3,10C39.7,8.7,38.9,7.4,37.9,6.4z"/>
		<path fill="#9D0666" d="M40.3,10L21.7,20.8c0.6,1.4,1.5,2.6,2.5,3.6l17.1-9.9C41.2,12.9,40.8,11.4,40.3,10z"/>
		<path fill="#6D276E" d="M41.3,14.5l-17.1,9.9c1.2,1.2,2.6,2.1,4.2,2.5l12.2-7c0.5-1.4,0.8-2.9,0.8-4.6
			C41.3,15,41.3,14.8,41.3,14.5z"/>
		<path fill="#3F3E7C" d="M30.9,27.3c4.3,0,8.1-3.1,9.6-7.4l-12.2,7C29.2,27.1,30,27.3,30.9,27.3z"/>
	</g>
	<g>
		<path fill="#FFFFFF" d="M10.7,21.1h-3v-9H5.2V9.5h8v2.5h-2.5V21.1z"/>
		<path fill="#FFFFFF" d="M28,15.1c0,3.7-2.7,6.4-6.4,6.4c-3.7,0-6.4-2.6-6.4-6.4c0-3.5,3.1-6,6.4-6C24.9,9.1,28,11.6,28,15.1z"/>
		<path fill="#FFFFFF" d="M42.5,14.6c0,1.7-0.2,3.1-1.2,4.6c-1.1,1.6-2.8,2.3-4.8,2.3c-3.6,0-6.2-2.5-6.2-6.1c0-3.8,2.5-6.2,6.3-6.2
			c2.4,0,4.2,1.1,5.2,3.2L39,13.6c-0.4-1.1-1.3-1.8-2.5-1.8c-2,0-3,1.9-3,3.7c0,1.8,1.1,3.6,3.1,3.6c1.3,0,2.3-0.7,2.4-2h-2.5v-2.4
			H42.5z"/>
		<path fill="#FFFFFF" d="M57.6,15.1c0,3.7-2.7,6.4-6.4,6.4c-3.7,0-6.4-2.6-6.4-6.4c0-3.5,3.1-6,6.4-6C54.6,9.1,57.6,11.6,57.6,15.1
			z"/>
	</g>
	<g>
		<path fill="#444444" d="M64.4,9.5h4.3c3.2,0,5.9,2.5,5.9,5.8S71.9,21,68.6,21h-4.3V9.5z M67.4,18.5h0.7c1.8,0,3.3-1,3.3-3.2
			c0-2.1-1.4-3.2-3.3-3.2h-0.7V18.5z"/>
		<path fill="#444444" d="M74.4,9.5h3.7l1.8,3l1.8-3h3.7l-3.7,5.4l4.3,6.2h-3.6l-2.4-3.8L77.2,21h-3.6l4.5-6.2L74.4,9.5z"/>
	</g>
</g>
</svg>
